<?xml version="1.0" ?><!DOCTYPE svg  PUBLIC '-//W3C//DTD SVG 1.1//EN'  'http://www.w3.org/Graphics/SVG/1.1/DTD/svg11.dtd'><svg enable-background="new 0 0 1024 1024" height="1024px" id="Layer_1" version="1.1" viewBox="0 0 1024 1024" width="1024px" xml:space="preserve" xmlns="http://www.w3.org/2000/svg" xmlns:xlink="http://www.w3.org/1999/xlink"><g><path clip-rule="evenodd" d="M402.686,253.751c-36.719,46.495-57.707,98.854-65.459,157.824    c121.275,0,241.561,0,363.084,0c1.665-32.225-2.108-63.419-12.198-93.659c-24.729-74.105-78.663-110.971-154.192-120.124    c-94.292-11.424-181.412,13.017-265.009,53.636c-87.636,42.582-159.213,104.42-215.575,183.912    c-3.593,5.072-7.28,10.076-10.923,15.113c-0.971-0.286-1.942-0.574-2.915-0.86c2.685-16.041,4.872-32.183,8.129-48.105    c26.35-128.842,88.312-235.819,195.387-314.202c69.818-51.11,149.229-76.979,234.867-84.996    C598.691-9.021,708.15,21.594,805.114,94.007c93.591,69.891,145.892,165.908,169.537,278.827    c9.237,44.109,10.103,88.872,9.8,133.713c-0.197,28.91-0.037,57.818-0.037,87.848c-213.95,0-427.736,0-644.488,0    c2.125,17.202,2.723,33.327,6.261,48.777c17.244,75.323,67.239,121.034,137.204,146.724    c52.062,19.117,106.71,22.391,161.639,20.416c86.798-3.12,167.288-28.223,242.516-71.108c2.663-1.517,5.51-2.714,10.048-4.928    c0.379,5.423,0.905,9.508,0.909,13.59c0.089,62.639-0.111,125.278,0.345,187.913c0.081,11.28-4.549,17.098-14.256,21.819    c-100.76,49.003-207.473,69.158-318.92,66.101c-113.926-3.125-213.905-41.264-295.409-122.204    c-68.27-67.798-103.9-151.117-111.588-246.779c-8.139-101.252,16.172-193.379,77.766-274.671    c42.575-56.185,97.646-96.657,161.909-124.955C399.724,254.483,401.237,254.19,402.686,253.751z" fill-rule="evenodd"/></g></svg>