<?xml version="1.0" ?><!DOCTYPE svg  PUBLIC '-//W3C//DTD SVG 1.1//EN'  'http://www.w3.org/Graphics/SVG/1.1/DTD/svg11.dtd'><svg height="256px" style="shape-rendering:geometricPrecision; text-rendering:geometricPrecision; image-rendering:optimizeQuality; fill-rule:evenodd; clip-rule:evenodd" version="1.1" viewBox="0 0 255999 255998" width="256px" xml:space="preserve" xmlns="http://www.w3.org/2000/svg" xmlns:xlink="http://www.w3.org/1999/xlink"><defs><style type="text/css">
   <![CDATA[
    .fil13 {fill:none}
    .fil1 {fill:#314864}
    .fil6 {fill:#424242}
    .fil0 {fill:#8BB4DC}
    .fil5 {fill:#CD4B06}
    .fil4 {fill:#F16F08}
    .fil9 {fill:#F25900}
    .fil12 {fill:#F2770F}
    .fil2 {fill:#F3780F}
    .fil8 {fill:#F47930}
    .fil7 {fill:#F79412}
    .fil3 {fill:#F79612}
    .fil11 {fill:#FFC414}
    .fil10 {fill:#FFFFFE}
   ]]>
  </style></defs><g id="Layer_x0020_1"><g id="_396620808"><g><path class="fil0" d="M249933 128026c0,70176 -54594,127065 -121933,127065 -67342,0 -121933,-56889 -121933,-127065 0,-70176 54591,-127065 121933,-127065 67339,0 121933,56889 121933,127065z"/><path class="fil1" d="M148992 241704c-2419,-2928 -14735,-39113 -16553,-40996 -1816,-1882 -3432,-9412 -2624,-9830 808,-418 4642,4183 5250,4183 604,0 4239,-418 1816,-3556 -2423,-3137 -3127,-9098 -2424,-9307 709,-209 2120,2719 3131,1673 1009,-1046 5754,-2823 5754,-2823 0,0 -2423,4601 808,3346 3227,-1255 6053,-6694 8073,-6694 2019,0 404,7949 3230,6276 2828,-1674 1887,-6276 2694,-7390 804,-1117 3902,-419 8207,975 4308,1395 1390,4879 3367,6415 1611,1255 4035,-2092 4842,-1256 808,838 -2153,6275 -941,7531 1212,1254 9285,8784 13323,6693 4039,-2092 5654,-20916 3634,-20916 -2018,0 -3230,-3765 -5249,-3347 -2019,418 -6862,1255 -5650,0 1212,-1254 1212,-3764 -404,-3346 -1616,418 -4846,0 -8480,418 -3634,418 -4442,-3765 -4846,-5857 -404,-2092 2422,-10876 1210,-10876 -1210,0 -2418,2510 -1614,418 808,-2091 -404,-5437 -1345,-6972 -941,-1534 -6594,-2509 -6861,-3067 -271,-557 4305,-4601 4438,-5299 137,-697 2019,-3904 2019,-5438 0,-1534 -2286,-2928 -2690,-4044 -404,-1115 1749,-5020 -270,-5717 -2020,-698 -2828,3904 -4172,3068 -1344,-837 -5654,-2928 -6729,-3904 -1077,-977 -3363,-2231 -4574,-3347 -1212,-1116 2152,-4323 1748,-5438 -404,-1116 -3768,-698 -4979,-3765 -1211,-3068 1345,-4741 2153,-5717 808,-977 3230,418 4574,418 1345,0 2424,3487 3098,3487 671,-1 1749,-2790 2556,-2790 809,0 4843,2231 5517,2092 674,-140 674,-1952 674,-4602 0,-2649 -4308,-2788 -5787,-4323 -1481,-1533 -674,-5019 267,-5716 945,-698 2290,1394 3368,1115 1074,-279 2015,-2789 4034,-2789 2019,0 4171,4602 6595,3487 1253,-578 3364,1533 3634,3625 271,2091 -2152,4323 -674,4323 1482,0 2020,-2371 2561,-2092 537,279 878,1072 807,3067 -137,3626 2015,4044 2419,4044 404,0 2020,836 2290,-1673 267,-2510 2152,-4183 2960,-4463 808,-277 4038,-139 3768,-1672 -271,-1533 1749,-4462 808,-6415 -940,-1952 -3094,-1533 -4172,-1673 -1073,-140 -1616,-1533 -2152,-2928 -542,-1395 807,-1813 1344,-1952 538,-140 404,-1115 134,-2928 -267,-1812 1482,-3207 2290,-3348 808,-138 2018,-2928 2960,-2369 3626,2145 4846,2649 6461,3486 1616,836 1074,3067 537,3486 -537,418 -1344,279 -1882,2092 -541,1813 134,3485 1611,3764 1483,280 2424,-1813 3636,-2370 1210,-558 3096,-1117 3096,-1117 0,0 1616,-1811 134,-3346 -1478,-1534 -1345,-2788 -1345,-3485 1,-698 -1885,-1256 -3501,-3069 -1616,-1811 -2286,-4601 -2556,-7947 -270,-3347 -3769,-3208 -4305,-3347 -541,-140 -1886,-417 -3772,-2509 -1882,-2093 -3768,-2232 -4842,-2232 -1078,0 -808,558 -3906,2650 -3093,2091 -6861,2371 -9417,2510 -2560,139 -4979,-1256 -6328,-2928 -1345,-1674 -2690,-1395 -3365,-1255 -674,139 -1344,3206 -3364,976 -2018,-2231 -2422,-1256 -3363,-1535 -940,-279 -1483,-2509 -2020,-4602 -536,-2091 1482,-4601 2290,-5019 804,-418 2286,1952 3093,1952 808,0 271,-1254 271,-3346 1,-2092 2557,-2928 3365,-3069 807,-138 2152,-2649 2960,-2509 808,140 -808,1255 133,1952 945,697 1481,557 2019,2370 1000,3356 1749,3626 1749,3626 0,0 -267,-3067 1885,-2788 2153,279 3231,-1256 3365,-3067 133,-1813 -1883,-2372 -2828,-2093 -940,280 -1748,-2650 -669,-2370 1073,279 4171,-419 3226,-2093 -941,-1672 -3226,-4182 -1749,-4321 1482,-140 4442,2231 4442,2231 0,0 808,-3765 404,-6275 -404,-2510 -6866,-9203 -8880,-12131 -2019,-2928 2418,-3975 2418,-3975 2,0 3839,-2509 2828,-3347 -1008,-836 -5450,-5961 -5450,-5961 49628,16002 85395,64695 85395,121627 0,60777 -41085,111563 -95908,123894l-5033 -10529z"/><path class="fil1" d="M129554 246094c-67629,-11640 -123235,-41827 -123235,-113968 0,-72143 53896,-131163 121124,-131163 0,0 8884,-432 16287,1113 -841,2119 -4040,1151 -5117,1438 -1074,287 -5113,3736 -6458,4885 -1349,1150 -8076,575 -10766,1437 -2694,862 -3502,4024 -1886,4886 1615,863 -6191,-1724 -9421,-1150 -3232,575 -3431,3737 0,5748 887,519 -7265,1150 -7265,1150 0,0 -1887,3737 -3769,4311 -1885,575 -6461,-287 -8077,862 -1615,1150 2695,575 2695,2299 0,1725 -2695,3450 -1887,5749 808,2298 1887,-1149 3231,862 1345,2011 1615,7472 537,10058 -1078,2587 -18302,22417 -18840,37076 -541,14657 -17766,58054 -14805,72712 2961,14658 67652,91695 67652,91695z"/></g><path class="fil2" d="M214786 120709l-15120 -12705c0,0 -3171,-7893 -9294,-13579 0,0 3817,20929 3022,48449l21392 -22165z"/><path class="fil3" d="M197630 189827l-6367 -43366c-22978,37456 -49096,36361 -85792,24954l4072 37967 48484 6482 39603 -26037z"/><path class="fil4" d="M105531 205587l-4071 -21093 -44789 -25311 -32573 -92810 -10520 2175c0,0 -9768,14260 -12790,49854 0,0 -5192,32344 11095,61874 16286,29530 40716,29530 40716,29530l52932 -4219z"/><path class="fil5" d="M72046 104561l14535 1806c0,0 -8969,10717 4073,20852 0,0 10259,4532 24176,-3048l19085 -10299c0,0 4189,-1094 117,7344 0,0 -3615,14161 -24213,23142 0,0 -15689,7125 -7953,17302l14951 25542 -52003 -36456 7232 -46185z"/><path class="fil6" d="M132844 61015c0,0 4731,-3955 9264,-1278 0,0 5762,10235 -6960,10741l-2304 -9463z"/><path class="fil7" d="M166605 32624c18431,-3343 48861,19836 48861,37968l-12216 42186c0,0 4072,-54842 -36645,-80154z"/><path class="fil8" d="M20025 57936c0,0 23,-26224 14263,-42642 0,0 0,16314 8430,26037 0,0 -10478,20824 -22693,16605z"/><path class="fil9" d="M77029 41062c0,0 16901,-18024 39009,-20825 0,0 -11852,10603 -18651,33480 0,0 -20358,-4218 -20358,-12655z"/><path class="fil10" d="M91531 68801l46573 1791c0,0 -16167,22093 -38620,25811l-7953 -27602z"/><path class="fil11" d="M168738 0c0,0 30441,24188 34512,49499l17975 26799 14598 -22581c0,0 -17938,-53552 -67085,-53717z"/><path class="fil12" d="M227110 26367c7926,52106 -18337,26648 19245,67893 0,0 11452,-42187 -19245,-67893z"/><path class="fil9" d="M13578 68548c0,0 14878,-31348 47452,-31348 0,0 14591,-1752 28501,12656 0,0 13433,8311 22181,9958l25726 -247c0,0 6510,12168 -15334,15601l-24430 0c0,0 4415,12661 11015,19664l13415 14085c-12159,-955 -23269,-2168 -35523,-2550l-4294 824c-18320,25915 11033,60611 31673,73442l32574 33749c0,0 40717,-21092 44788,-67497 0,0 8144,-54842 28502,-92810 0,0 18607,12180 31545,33842 3013,11283 4630,23166 4630,35444 0,73252 -57315,132637 -128017,132637 -54306,0 -100711,-35039 -119314,-84485 -3968,-24586 40637,37150 90714,18485l-217 -307c-58776,-2426 -65291,-67178 -85587,-121143z"/></g></g><rect class="fil13" height="255998" width="255998" x="1"/></svg>