<?xml version="1.0" ?><svg height="56.6934px" id="Layer_1" style="enable-background:new 0 0 56.6934 56.6934;" version="1.1" viewBox="0 0 56.6934 56.6934" width="56.6934px" xml:space="preserve" xmlns="http://www.w3.org/2000/svg" xmlns:xlink="http://www.w3.org/1999/xlink"><g><path d="M28.5558,4.0693c-13.5996,0-24.625,11.0234-24.625,24.623s11.0254,24.625,24.625,24.625   c13.5985,0,24.6239-11.0254,24.6239-24.625S42.1543,4.0693,28.5558,4.0693z M28.7907,46.5952   c-9.8711,0-17.9019-8.0312-17.9019-17.9023s8.0308-17.9014,17.9019-17.9014s17.9019,8.0303,17.9019,17.9014   S38.6618,46.5952,28.7907,46.5952z"/><path d="M28.7907,11.7915c-9.3198,0-16.9019,7.582-16.9019,16.9014c0,9.3203,7.582,16.9023,16.9019,16.9023   s16.9019-7.582,16.9019-16.9023C45.6926,19.3735,38.1105,11.7915,28.7907,11.7915z M39.6931,18.9858v0.001l-8.3672,11.959   c-0.085,0.1201-0.2031,0.2148-0.3521,0.2822l-11.7354,8.3525c-0.1445,0.1035-0.3149,0.1572-0.4922,0.1572   c-0.2266,0-0.4399-0.0879-0.5996-0.248c-0.293-0.291-0.3345-0.749-0.0967-1.0889l8.3672-11.96   c0.085-0.1201,0.2031-0.2148,0.3521-0.2822l11.7349-8.3516c0.333-0.2432,0.7939-0.2061,1.0918,0.0889   C39.8894,18.188,39.9309,18.646,39.6931,18.9858z"/><polygon points="19.3254,38.3247 30.4777,30.3657 27.2653,27.021  "/></g></svg>